<?xml version="1.0" encoding="UTF-8"?><svg xmlns="http://www.w3.org/2000/svg" xmlns:xlink="http://www.w3.org/1999/xlink" fill-opacity="1" color-rendering="auto" color-interpolation="auto" text-rendering="auto" stroke="black" stroke-linecap="square" width="1506" stroke-miterlimit="10" shape-rendering="auto" stroke-opacity="1" fill="black" stroke-dasharray="none" font-weight="normal" stroke-width="1" height="929" font-family="'Dialog'" font-style="normal" stroke-linejoin="miter" font-size="12px" stroke-dashoffset="0" image-rendering="auto">
  <!--Generated by ySVG 2.5-->
  <defs id="genericDefs"/>
  <g>
    <defs id="defs1">
      <clipPath clipPathUnits="userSpaceOnUse" id="clipPath1">
        <path d="M0 0 L1506 0 L1506 929 L0 929 L0 0 Z"/>
      </clipPath>
      <clipPath clipPathUnits="userSpaceOnUse" id="clipPath2">
        <path d="M-170 -739 L1336 -739 L1336 190 L-170 190 L-170 -739 Z"/>
      </clipPath>
      <clipPath clipPathUnits="userSpaceOnUse" id="clipPath3">
        <path d="M-174 -743 L1332 -743 L1332 186 L-174 186 L-174 -743 Z"/>
      </clipPath>
      <clipPath clipPathUnits="userSpaceOnUse" id="clipPath4">
        <path d="M167 -13 L167 15 L435 15 L435 -13 Z"/>
      </clipPath>
      <clipPath clipPathUnits="userSpaceOnUse" id="clipPath5">
        <path d="M37 -13 L37 15 L137 15 L137 -13 Z"/>
      </clipPath>
      <clipPath clipPathUnits="userSpaceOnUse" id="clipPath6">
        <path d="M100 -86 L100 -58 L368 -58 L368 -86 Z"/>
      </clipPath>
      <clipPath clipPathUnits="userSpaceOnUse" id="clipPath7">
        <path d="M555 -276 L555 -248 L810 -248 L810 -276 Z"/>
      </clipPath>
      <clipPath clipPathUnits="userSpaceOnUse" id="clipPath8">
        <path d="M492 -201 L492 -173 L747 -173 L747 -201 Z"/>
      </clipPath>
      <clipPath clipPathUnits="userSpaceOnUse" id="clipPath9">
        <path d="M807 -196 L807 -168 L1117 -168 L1117 -196 Z"/>
      </clipPath>
      <clipPath clipPathUnits="userSpaceOnUse" id="clipPath10">
        <path d="M954 -28 L954 0 L1117 0 L1117 -28 Z"/>
      </clipPath>
      <clipPath clipPathUnits="userSpaceOnUse" id="clipPath11">
        <path d="M793 -28 L793 0 L924 0 L924 -28 Z"/>
      </clipPath>
      <clipPath clipPathUnits="userSpaceOnUse" id="clipPath12">
        <path d="M807 -101 L807 -73 L1117 -73 L1117 -101 Z"/>
      </clipPath>
      <clipPath clipPathUnits="userSpaceOnUse" id="clipPath13">
        <path d="M533 -101 L533 -73 L747 -73 L747 -101 Z"/>
      </clipPath>
      <clipPath clipPathUnits="userSpaceOnUse" id="clipPath14">
        <path d="M222 -276 L222 -248 L430 -248 L430 -276 Z"/>
      </clipPath>
      <clipPath clipPathUnits="userSpaceOnUse" id="clipPath15">
        <path d="M209 -484 L209 -456 L435 -456 L435 -484 Z"/>
      </clipPath>
      <clipPath clipPathUnits="userSpaceOnUse" id="clipPath16">
        <path d="M209 -600 L209 -572 L435 -572 L435 -600 Z"/>
      </clipPath>
    </defs>
    <g fill="white" text-rendering="geometricPrecision" shape-rendering="geometricPrecision" transform="translate(170,739)" stroke="white">
      <rect x="-170" width="1506" height="929" y="-739" clip-path="url(#clipPath2)" stroke="none"/>
    </g>
    <g fill="rgb(245,245,245)" text-rendering="geometricPrecision" shape-rendering="geometricPrecision" transform="matrix(1,0,0,1,170,739)" stroke="rgb(245,245,245)">
      <rect x="0" y="-351.5059" clip-path="url(#clipPath2)" width="1168" rx="4" ry="4" height="400.5059" stroke="none"/>
      <rect x="0" y="-351.5059" clip-path="url(#clipPath2)" fill="rgb(235,235,235)" width="1168" height="22.3765" stroke="none"/>
    </g>
    <g font-size="15px" stroke-linecap="butt" transform="matrix(1,0,0,1,170,739)" text-rendering="geometricPrecision" font-family="sans-serif" shape-rendering="geometricPrecision" stroke-miterlimit="1.45">
      <text x="1121.8203" xml:space="preserve" y="-334.4253" clip-path="url(#clipPath2)" stroke="none">Server</text>
      <rect x="0" y="-351.5059" clip-path="url(#clipPath2)" fill="none" width="1168" stroke-dasharray="6,2" rx="4" ry="4" height="400.5059"/>
    </g>
    <g fill="rgb(210,210,210)" text-rendering="geometricPrecision" shape-rendering="geometricPrecision" transform="matrix(1,0,0,1,170,739) translate(4,4)" stroke="rgb(210,210,210)">
      <rect x="21.375" width="430" height="160.3765" y="-130.3765" clip-path="url(#clipPath3)" stroke="none"/>
    </g>
    <g fill="rgb(222,220,196)" text-rendering="geometricPrecision" shape-rendering="geometricPrecision" transform="matrix(1,0,0,1,170,739)" stroke="rgb(222,220,196)">
      <rect x="21.375" width="430" height="160.3765" y="-130.3765" clip-path="url(#clipPath2)" stroke="none"/>
      <rect x="21.375" y="-130.3765" clip-path="url(#clipPath2)" fill="rgb(183,182,158)" width="430" height="22.3765" stroke="none"/>
    </g>
    <g font-size="15px" stroke-linecap="butt" transform="matrix(1,0,0,1,170,739)" text-rendering="geometricPrecision" font-family="sans-serif" shape-rendering="geometricPrecision" stroke-miterlimit="1.45">
      <text x="417.6904" xml:space="preserve" y="-113.2959" clip-path="url(#clipPath2)" stroke="none">Data</text>
      <rect fill="none" x="21.375" width="430" height="160.3765" y="-130.3765" clip-path="url(#clipPath2)"/>
    </g>
    <g fill="rgb(255,102,0)" text-rendering="geometricPrecision" shape-rendering="geometricPrecision" transform="matrix(1,0,0,1,170,739)" stroke="rgb(255,102,0)">
      <rect x="168" width="266" height="26" y="-12" clip-path="url(#clipPath2)" stroke="none"/>
      <rect x="167" y="-13" clip-path="url(#clipPath2)" fill="rgb(255,145,0)" width="1" height="28" stroke="none"/>
      <rect x="168" y="-13" clip-path="url(#clipPath2)" fill="rgb(255,145,0)" width="266" height="1" stroke="none"/>
      <rect x="168" y="14" clip-path="url(#clipPath2)" fill="rgb(178,71,0)" width="267" height="1" stroke="none"/>
      <rect x="434" y="-13" clip-path="url(#clipPath2)" fill="rgb(178,71,0)" width="1" height="27" stroke="none"/>
    </g>
    <g font-size="13px" stroke-linecap="butt" transform="matrix(1,0,0,1,170,739)" text-rendering="geometricPrecision" font-family="sans-serif" shape-rendering="geometricPrecision" font-weight="bold" stroke-miterlimit="1.45">
      <text x="264.8982" xml:space="preserve" y="5.0698" clip-path="url(#clipPath4)" stroke="none">Spring Data</text>
    </g>
    <g fill="rgb(255,204,0)" text-rendering="geometricPrecision" shape-rendering="geometricPrecision" transform="matrix(1,0,0,1,170,739)" stroke="rgb(255,204,0)">
      <rect x="38" width="98" height="26" y="-12" clip-path="url(#clipPath2)" stroke="none"/>
      <rect x="37" y="-13" clip-path="url(#clipPath2)" fill="yellow" width="1" height="28" stroke="none"/>
      <rect x="38" y="-13" clip-path="url(#clipPath2)" fill="yellow" width="98" height="1" stroke="none"/>
      <rect x="38" y="14" clip-path="url(#clipPath2)" fill="rgb(178,142,0)" width="99" height="1" stroke="none"/>
      <rect x="136" y="-13" clip-path="url(#clipPath2)" fill="rgb(178,142,0)" width="1" height="27" stroke="none"/>
    </g>
    <g font-size="13px" stroke-linecap="butt" transform="matrix(1,0,0,1,170,739)" text-rendering="geometricPrecision" font-family="sans-serif" shape-rendering="geometricPrecision" font-weight="bold" stroke-miterlimit="1.45">
      <text x="60.645" xml:space="preserve" y="5.0698" clip-path="url(#clipPath5)" stroke="none">Property</text>
    </g>
    <g fill="rgb(255,204,0)" text-rendering="geometricPrecision" shape-rendering="geometricPrecision" transform="matrix(1,0,0,1,170,739)" stroke="rgb(255,204,0)">
      <rect x="101" width="266" height="26" y="-85" clip-path="url(#clipPath2)" stroke="none"/>
      <rect x="100" y="-86" clip-path="url(#clipPath2)" fill="yellow" width="1" height="28" stroke="none"/>
      <rect x="101" y="-86" clip-path="url(#clipPath2)" fill="yellow" width="266" height="1" stroke="none"/>
      <rect x="101" y="-59" clip-path="url(#clipPath2)" fill="rgb(178,142,0)" width="267" height="1" stroke="none"/>
      <rect x="367" y="-86" clip-path="url(#clipPath2)" fill="rgb(178,142,0)" width="1" height="27" stroke="none"/>
    </g>
    <g font-size="13px" stroke-linecap="butt" transform="matrix(1,0,0,1,170,739)" text-rendering="geometricPrecision" font-family="sans-serif" shape-rendering="geometricPrecision" font-weight="bold" stroke-miterlimit="1.45">
      <text x="173.6946" xml:space="preserve" y="-67.9302" clip-path="url(#clipPath6)" stroke="none">PropertyRepository</text>
      <path fill="none" d="M301.375 -13.0439 L301.375 -42.9561" clip-path="url(#clipPath2)"/>
    </g>
    <g stroke-linecap="butt" transform="matrix(1,0,0,1,170,739)" fill="white" text-rendering="geometricPrecision" shape-rendering="geometricPrecision" stroke="white" stroke-miterlimit="1.45">
      <path d="M301.375 -57.9561 L295.375 -41.9561 L307.375 -41.9561 Z" stroke="none" clip-path="url(#clipPath2)"/>
      <path fill="none" d="M301.375 -57.9561 L295.375 -41.9561 L307.375 -41.9561 Z" clip-path="url(#clipPath2)" stroke="black"/>
      <path fill="none" d="M87.375 -13.0293 L87.375 -28 L167.375 -28 L167.375 -57.9707" clip-path="url(#clipPath2)" stroke="black"/>
    </g>
    <g fill="rgb(210,210,210)" text-rendering="geometricPrecision" shape-rendering="geometricPrecision" transform="matrix(1,0,0,1,170,739) translate(4,4)" stroke="rgb(210,210,210)">
      <rect x="476" width="673" height="344.1294" y="-314.1294" clip-path="url(#clipPath3)" stroke="none"/>
    </g>
    <g fill="rgb(222,220,196)" text-rendering="geometricPrecision" shape-rendering="geometricPrecision" transform="matrix(1,0,0,1,170,739)" stroke="rgb(222,220,196)">
      <rect x="476" width="673" height="344.1294" y="-314.1294" clip-path="url(#clipPath2)" stroke="none"/>
      <rect x="476" y="-314.1294" clip-path="url(#clipPath2)" fill="rgb(183,182,158)" width="673" height="22.3765" stroke="none"/>
    </g>
    <g font-size="15px" stroke-linecap="butt" transform="matrix(1,0,0,1,170,739)" text-rendering="geometricPrecision" font-family="sans-serif" shape-rendering="geometricPrecision" stroke-miterlimit="1.45">
      <text x="1086.1357" xml:space="preserve" y="-297.0488" clip-path="url(#clipPath2)" stroke="none">Business</text>
      <rect fill="none" x="476" width="673" height="344.1294" y="-314.1294" clip-path="url(#clipPath2)"/>
    </g>
    <g fill="rgb(255,204,0)" text-rendering="geometricPrecision" shape-rendering="geometricPrecision" transform="matrix(1,0,0,1,170,739)" stroke="rgb(255,204,0)">
      <rect x="556" width="253" height="26" y="-275" clip-path="url(#clipPath2)" stroke="none"/>
      <rect x="555" y="-276" clip-path="url(#clipPath2)" fill="yellow" width="1" height="28" stroke="none"/>
      <rect x="556" y="-276" clip-path="url(#clipPath2)" fill="yellow" width="253" height="1" stroke="none"/>
      <rect x="556" y="-249" clip-path="url(#clipPath2)" fill="rgb(178,142,0)" width="254" height="1" stroke="none"/>
      <rect x="809" y="-276" clip-path="url(#clipPath2)" fill="rgb(178,142,0)" width="1" height="27" stroke="none"/>
    </g>
    <g font-size="13px" stroke-linecap="butt" transform="matrix(1,0,0,1,170,739)" text-rendering="geometricPrecision" font-family="sans-serif" shape-rendering="geometricPrecision" font-weight="bold" stroke-miterlimit="1.45">
      <text x="620.0273" xml:space="preserve" y="-258.6831" clip-path="url(#clipPath7)" stroke="none">PropertyServiceImpl</text>
    </g>
    <g fill="rgb(255,204,0)" text-rendering="geometricPrecision" shape-rendering="geometricPrecision" transform="matrix(1,0,0,1,170,739)" stroke="rgb(255,204,0)">
      <rect x="493" width="253" height="26" y="-200" clip-path="url(#clipPath2)" stroke="none"/>
      <rect x="492" y="-201" clip-path="url(#clipPath2)" fill="yellow" width="1" height="28" stroke="none"/>
      <rect x="493" y="-201" clip-path="url(#clipPath2)" fill="yellow" width="253" height="1" stroke="none"/>
      <rect x="493" y="-174" clip-path="url(#clipPath2)" fill="rgb(178,142,0)" width="254" height="1" stroke="none"/>
      <rect x="746" y="-201" clip-path="url(#clipPath2)" fill="rgb(178,142,0)" width="1" height="27" stroke="none"/>
    </g>
    <g font-size="13px" stroke-linecap="butt" transform="matrix(1,0,0,1,170,739)" text-rendering="geometricPrecision" font-family="sans-serif" shape-rendering="geometricPrecision" font-weight="bold" stroke-miterlimit="1.45">
      <text x="569.6392" xml:space="preserve" y="-183.3066" clip-path="url(#clipPath8)" stroke="none">PropertyService</text>
      <path fill="none" d="M234.375 -86.0329 L234.375 -153.3765 L619.5 -153.3765 L619.5 -165.3374" clip-path="url(#clipPath2)"/>
      <path d="M619.5 -173.3374 L614.5 -161.3374 L619.5 -164.3374 L624.5 -161.3374 Z" stroke="none" clip-path="url(#clipPath2)"/>
      <text x="191.7012" font-size="12px" y="-95.6367" clip-path="url(#clipPath2)" stroke="none" font-weight="normal" xml:space="preserve">uses</text>
      <path fill="none" d="M683.25 -201.4227 L683.25 -233.7067" clip-path="url(#clipPath2)"/>
    </g>
    <g stroke-linecap="butt" transform="matrix(1,0,0,1,170,739)" fill="white" text-rendering="geometricPrecision" shape-rendering="geometricPrecision" stroke="white" stroke-miterlimit="1.45">
      <path d="M683.25 -248.7067 L677.25 -232.7067 L689.25 -232.7067 Z" stroke="none" clip-path="url(#clipPath2)"/>
      <path fill="none" d="M683.25 -248.7067 L677.25 -232.7067 L689.25 -232.7067 Z" clip-path="url(#clipPath2)" stroke="black"/>
    </g>
    <g fill="rgb(205,205,205)" text-rendering="geometricPrecision" shape-rendering="geometricPrecision" transform="matrix(1,0,0,1,170,739)" stroke="rgb(205,205,205)">
      <rect x="777" y="-233.7529" clip-path="url(#clipPath2)" width="356" rx="4" ry="4" height="248.7529" stroke="none"/>
      <rect x="777" y="-233.7529" clip-path="url(#clipPath2)" fill="rgb(235,235,235)" width="356" height="22.3765" stroke="none"/>
    </g>
    <g font-size="15px" stroke-linecap="butt" transform="matrix(1,0,0,1,170,739)" text-rendering="geometricPrecision" font-family="sans-serif" shape-rendering="geometricPrecision" stroke-miterlimit="1.45">
      <text x="1088.4829" xml:space="preserve" y="-216.6724" clip-path="url(#clipPath2)" stroke="none">parser</text>
      <rect x="777" y="-233.7529" clip-path="url(#clipPath2)" fill="none" width="356" stroke-dasharray="6,2" rx="4" ry="4" height="248.7529"/>
    </g>
    <g fill="rgb(255,204,0)" text-rendering="geometricPrecision" shape-rendering="geometricPrecision" transform="matrix(1,0,0,1,170,739)" stroke="rgb(255,204,0)">
      <rect x="808" width="308" height="26" y="-195" clip-path="url(#clipPath2)" stroke="none"/>
      <rect x="807" y="-196" clip-path="url(#clipPath2)" fill="yellow" width="1" height="28" stroke="none"/>
      <rect x="808" y="-196" clip-path="url(#clipPath2)" fill="yellow" width="308" height="1" stroke="none"/>
      <rect x="808" y="-169" clip-path="url(#clipPath2)" fill="rgb(178,142,0)" width="309" height="1" stroke="none"/>
      <rect x="1116" y="-196" clip-path="url(#clipPath2)" fill="rgb(178,142,0)" width="1" height="27" stroke="none"/>
    </g>
    <g font-size="13px" stroke-linecap="butt" transform="matrix(1,0,0,1,170,739)" text-rendering="geometricPrecision" font-family="sans-serif" shape-rendering="geometricPrecision" font-weight="bold" stroke-miterlimit="1.45">
      <text x="915.0305" xml:space="preserve" y="-178.3066" clip-path="url(#clipPath9)" stroke="none">PropertyParser</text>
    </g>
    <g fill="rgb(255,204,0)" text-rendering="geometricPrecision" shape-rendering="geometricPrecision" transform="matrix(1,0,0,1,170,739)" stroke="rgb(255,204,0)">
      <rect x="955" width="161" height="26" y="-27" clip-path="url(#clipPath2)" stroke="none"/>
      <rect x="954" y="-28" clip-path="url(#clipPath2)" fill="yellow" width="1" height="28" stroke="none"/>
      <rect x="955" y="-28" clip-path="url(#clipPath2)" fill="yellow" width="161" height="1" stroke="none"/>
      <rect x="955" y="-1" clip-path="url(#clipPath2)" fill="rgb(178,142,0)" width="162" height="1" stroke="none"/>
      <rect x="1116" y="-28" clip-path="url(#clipPath2)" fill="rgb(178,142,0)" width="1" height="27" stroke="none"/>
    </g>
    <g font-size="13px" stroke-linecap="butt" transform="matrix(1,0,0,1,170,739)" text-rendering="geometricPrecision" font-family="sans-serif" shape-rendering="geometricPrecision" font-weight="bold" stroke-miterlimit="1.45">
      <text x="964.3206" xml:space="preserve" y="-9.9302" clip-path="url(#clipPath10)" stroke="none">BrnenskeRealityParser</text>
    </g>
    <g fill="rgb(255,204,0)" text-rendering="geometricPrecision" shape-rendering="geometricPrecision" transform="matrix(1,0,0,1,170,739)" stroke="rgb(255,204,0)">
      <rect x="794" width="129" height="26" y="-27" clip-path="url(#clipPath2)" stroke="none"/>
      <rect x="793" y="-28" clip-path="url(#clipPath2)" fill="yellow" width="1" height="28" stroke="none"/>
      <rect x="794" y="-28" clip-path="url(#clipPath2)" fill="yellow" width="129" height="1" stroke="none"/>
      <rect x="794" y="-1" clip-path="url(#clipPath2)" fill="rgb(178,142,0)" width="130" height="1" stroke="none"/>
      <rect x="923" y="-28" clip-path="url(#clipPath2)" fill="rgb(178,142,0)" width="1" height="27" stroke="none"/>
    </g>
    <g font-size="13px" stroke-linecap="butt" transform="matrix(1,0,0,1,170,739)" text-rendering="geometricPrecision" font-family="sans-serif" shape-rendering="geometricPrecision" font-weight="bold" stroke-miterlimit="1.45">
      <text x="812.6096" xml:space="preserve" y="-9.9302" clip-path="url(#clipPath11)" stroke="none">SRealityParser</text>
    </g>
    <g fill="rgb(255,204,0)" text-rendering="geometricPrecision" shape-rendering="geometricPrecision" transform="matrix(1,0,0,1,170,739)" stroke="rgb(255,204,0)">
      <rect x="808" width="308" height="26" y="-100" clip-path="url(#clipPath2)" stroke="none"/>
      <rect x="807" y="-101" clip-path="url(#clipPath2)" fill="yellow" width="1" height="28" stroke="none"/>
      <rect x="808" y="-101" clip-path="url(#clipPath2)" fill="yellow" width="308" height="1" stroke="none"/>
      <rect x="808" y="-74" clip-path="url(#clipPath2)" fill="rgb(178,142,0)" width="309" height="1" stroke="none"/>
      <rect x="1116" y="-101" clip-path="url(#clipPath2)" fill="rgb(178,142,0)" width="1" height="27" stroke="none"/>
    </g>
    <g font-size="13px" stroke-linecap="butt" transform="matrix(1,0,0,1,170,739)" text-rendering="geometricPrecision" font-family="sans-serif" shape-rendering="geometricPrecision" font-weight="bold" stroke-miterlimit="1.45">
      <text x="888.6624" xml:space="preserve" y="-82.9302" clip-path="url(#clipPath12)" stroke="none">AbstractPropertyParser</text>
    </g>
    <g fill="rgb(255,204,0)" text-rendering="geometricPrecision" shape-rendering="geometricPrecision" transform="matrix(1,0,0,1,170,739)" stroke="rgb(255,204,0)">
      <rect x="534" width="212" height="26" y="-100" clip-path="url(#clipPath2)" stroke="none"/>
      <rect x="533" y="-101" clip-path="url(#clipPath2)" fill="yellow" width="1" height="28" stroke="none"/>
      <rect x="534" y="-101" clip-path="url(#clipPath2)" fill="yellow" width="212" height="1" stroke="none"/>
      <rect x="534" y="-74" clip-path="url(#clipPath2)" fill="rgb(178,142,0)" width="213" height="1" stroke="none"/>
      <rect x="746" y="-101" clip-path="url(#clipPath2)" fill="rgb(178,142,0)" width="1" height="27" stroke="none"/>
    </g>
    <g font-size="13px" stroke-linecap="butt" transform="matrix(1,0,0,1,170,739)" text-rendering="geometricPrecision" font-family="sans-serif" shape-rendering="geometricPrecision" font-weight="bold" stroke-miterlimit="1.45">
      <text x="588.7014" xml:space="preserve" y="-82.9302" clip-path="url(#clipPath13)" stroke="none">ScheduledTasks</text>
      <path fill="none" d="M891.25 -28.0293 L891.25 -43 L884.5 -43 L884.5 -57.9707" clip-path="url(#clipPath2)"/>
    </g>
    <g stroke-linecap="butt" transform="matrix(1,0,0,1,170,739)" fill="white" text-rendering="geometricPrecision" shape-rendering="geometricPrecision" stroke="white" stroke-miterlimit="1.45">
      <path d="M884.5 -72.9707 L878.5 -56.9707 L890.5 -56.9707 Z" stroke="none" clip-path="url(#clipPath2)"/>
      <path fill="none" d="M884.5 -72.9707 L878.5 -56.9707 L890.5 -56.9707 Z" clip-path="url(#clipPath2)" stroke="black"/>
      <path fill="none" d="M1076.25 -28.0293 L1076.25 -43 L1039.5 -43 L1039.5 -57.9707" clip-path="url(#clipPath2)" stroke="black"/>
      <path d="M1039.5 -72.9707 L1033.5 -56.9707 L1045.5 -56.9707 Z" clip-path="url(#clipPath2)" stroke="none"/>
      <path fill="none" d="M1039.5 -72.9707 L1033.5 -56.9707 L1045.5 -56.9707 Z" clip-path="url(#clipPath2)" stroke="black"/>
      <path fill="none" d="M962 -101.0329 L962 -153.3436" clip-path="url(#clipPath2)" stroke="black"/>
      <path d="M962 -168.3436 L956 -152.3436 L968 -152.3436 Z" clip-path="url(#clipPath2)" stroke="none"/>
      <path fill="none" d="M962 -168.3436 L956 -152.3436 L968 -152.3436 Z" clip-path="url(#clipPath2)" stroke="black"/>
      <path fill="none" d="M825.75 -28.0293 L825.75 -43 L640 -43 L640 -64.9707" clip-path="url(#clipPath2)" stroke="black"/>
      <path fill="black" d="M640 -72.9707 L635 -60.9707 L640 -63.9707 L645 -60.9707 Z" clip-path="url(#clipPath2)" stroke="none"/>
      <text x="843.0762" y="-34.5361" clip-path="url(#clipPath2)" fill="black" font-family="sans-serif" stroke="none" xml:space="preserve">uses</text>
      <path fill="none" d="M994.75 -28.0293 L994.75 -58 L711.3333 -58 L711.3333 -64.9707" clip-path="url(#clipPath2)" stroke="black"/>
      <path fill="black" d="M711.3333 -72.9707 L706.3333 -60.9707 L711.3333 -63.9707 L716.3333 -60.9707 Z" clip-path="url(#clipPath2)" stroke="none"/>
      <text x="952.0762" y="-37.6367" clip-path="url(#clipPath2)" fill="black" font-family="sans-serif" stroke="none" xml:space="preserve">uses</text>
      <path fill="none" d="M532.9697 -87 L517.5 -87 L517.5 -57.5 L568.6667 -57.5 L568.6667 -64.9697" clip-path="url(#clipPath2)" stroke="black"/>
      <path fill="black" d="M568.6667 -72.9697 L563.6667 -60.9697 L568.6667 -63.9697 L573.6667 -60.9697 Z" clip-path="url(#clipPath2)" stroke="none"/>
      <text x="493.3115" y="-39.2861" clip-path="url(#clipPath2)" fill="black" font-family="sans-serif" stroke="none" xml:space="preserve">runs every 24h</text>
    </g>
    <g fill="rgb(210,210,210)" text-rendering="geometricPrecision" shape-rendering="geometricPrecision" transform="matrix(1,0,0,1,170,739) translate(4,4)" stroke="rgb(210,210,210)">
      <rect x="206" width="240" height="80.3765" y="-314.1294" clip-path="url(#clipPath3)" stroke="none"/>
    </g>
    <g fill="rgb(222,220,196)" text-rendering="geometricPrecision" shape-rendering="geometricPrecision" transform="matrix(1,0,0,1,170,739)" stroke="rgb(222,220,196)">
      <rect x="206" width="240" height="80.3765" y="-314.1294" clip-path="url(#clipPath2)" stroke="none"/>
      <rect x="206" y="-314.1294" clip-path="url(#clipPath2)" fill="rgb(183,182,158)" width="240" height="22.3765" stroke="none"/>
    </g>
    <g font-size="15px" stroke-linecap="butt" transform="matrix(1,0,0,1,170,739)" text-rendering="geometricPrecision" font-family="sans-serif" shape-rendering="geometricPrecision" stroke-miterlimit="1.45">
      <text x="413.1577" xml:space="preserve" y="-297.0488" clip-path="url(#clipPath2)" stroke="none">Rest</text>
      <rect fill="none" x="206" width="240" height="80.3765" y="-314.1294" clip-path="url(#clipPath2)"/>
    </g>
    <g fill="rgb(255,204,0)" text-rendering="geometricPrecision" shape-rendering="geometricPrecision" transform="matrix(1,0,0,1,170,739)" stroke="rgb(255,204,0)">
      <rect x="223" width="206" height="26" y="-275" clip-path="url(#clipPath2)" stroke="none"/>
      <rect x="222" y="-276" clip-path="url(#clipPath2)" fill="yellow" width="1" height="28" stroke="none"/>
      <rect x="223" y="-276" clip-path="url(#clipPath2)" fill="yellow" width="206" height="1" stroke="none"/>
      <rect x="223" y="-249" clip-path="url(#clipPath2)" fill="rgb(178,142,0)" width="207" height="1" stroke="none"/>
      <rect x="429" y="-276" clip-path="url(#clipPath2)" fill="rgb(178,142,0)" width="1" height="27" stroke="none"/>
    </g>
    <g font-size="13px" stroke-linecap="butt" transform="matrix(1,0,0,1,170,739)" text-rendering="geometricPrecision" font-family="sans-serif" shape-rendering="geometricPrecision" font-weight="bold" stroke-miterlimit="1.45">
      <text x="269.6455" xml:space="preserve" y="-258.6831" clip-path="url(#clipPath14)" stroke="none">PropertyResource</text>
      <path fill="none" d="M555.75 -201.4155 L555.75 -211.3765 L326 -211.3765 L326 -240.7164" clip-path="url(#clipPath2)"/>
      <path d="M326 -248.7164 L321 -236.7164 L326 -239.7164 L331 -236.7164 Z" stroke="none" clip-path="url(#clipPath2)"/>
    </g>
    <g fill="rgb(245,245,245)" text-rendering="geometricPrecision" shape-rendering="geometricPrecision" transform="matrix(1,0,0,1,170,739)" stroke="rgb(245,245,245)">
      <rect x="177.125" y="-675.6353" clip-path="url(#clipPath2)" width="293.25" rx="4" ry="4" height="253.1294" stroke="none"/>
      <rect x="177.125" y="-675.6353" clip-path="url(#clipPath2)" fill="rgb(235,235,235)" width="293.25" height="22.3765" stroke="none"/>
    </g>
    <g font-size="15px" stroke-linecap="butt" transform="matrix(1,0,0,1,170,739)" text-rendering="geometricPrecision" font-family="sans-serif" shape-rendering="geometricPrecision" stroke-miterlimit="1.45">
      <text x="430.0254" xml:space="preserve" y="-658.5547" clip-path="url(#clipPath2)" stroke="none">Client</text>
      <rect x="177.125" y="-675.6353" clip-path="url(#clipPath2)" fill="none" width="293.25" stroke-dasharray="6,2" rx="4" ry="4" height="253.1294"/>
    </g>
    <g fill="rgb(210,210,210)" text-rendering="geometricPrecision" shape-rendering="geometricPrecision" transform="matrix(1,0,0,1,170,739) translate(4,4)" stroke="rgb(210,210,210)">
      <rect x="193.125" width="258.25" height="80.3765" y="-521.8823" clip-path="url(#clipPath3)" stroke="none"/>
    </g>
    <g fill="rgb(222,220,196)" text-rendering="geometricPrecision" shape-rendering="geometricPrecision" transform="matrix(1,0,0,1,170,739)" stroke="rgb(222,220,196)">
      <rect x="193.125" width="258.25" height="80.3765" y="-521.8823" clip-path="url(#clipPath2)" stroke="none"/>
      <rect x="193.125" y="-521.8823" clip-path="url(#clipPath2)" fill="rgb(183,182,158)" width="258.25" height="22.3765" stroke="none"/>
    </g>
    <g font-size="15px" stroke-linecap="butt" transform="matrix(1,0,0,1,170,739)" text-rendering="geometricPrecision" font-family="sans-serif" shape-rendering="geometricPrecision" stroke-miterlimit="1.45">
      <text x="391.8579" xml:space="preserve" y="-504.8018" clip-path="url(#clipPath2)" stroke="none">Services</text>
      <rect fill="none" x="193.125" width="258.25" height="80.3765" y="-521.8823" clip-path="url(#clipPath2)"/>
    </g>
    <g fill="rgb(255,204,0)" text-rendering="geometricPrecision" shape-rendering="geometricPrecision" transform="matrix(1,0,0,1,170,739)" stroke="rgb(255,204,0)">
      <rect x="210" width="224" height="26" y="-483" clip-path="url(#clipPath2)" stroke="none"/>
      <rect x="209" y="-484" clip-path="url(#clipPath2)" fill="yellow" width="1" height="28" stroke="none"/>
      <rect x="210" y="-484" clip-path="url(#clipPath2)" fill="yellow" width="224" height="1" stroke="none"/>
      <rect x="210" y="-457" clip-path="url(#clipPath2)" fill="rgb(178,142,0)" width="225" height="1" stroke="none"/>
      <rect x="434" y="-484" clip-path="url(#clipPath2)" fill="rgb(178,142,0)" width="1" height="27" stroke="none"/>
    </g>
    <g font-size="13px" stroke-linecap="butt" transform="matrix(1,0,0,1,170,739)" text-rendering="geometricPrecision" font-family="sans-serif" shape-rendering="geometricPrecision" font-weight="bold" stroke-miterlimit="1.45">
      <text x="272.3892" xml:space="preserve" y="-466.436" clip-path="url(#clipPath15)" stroke="none">PropertyService</text>
      <path fill="none" d="M322.25 -314.1642 L322.25 -448.4711" clip-path="url(#clipPath2)"/>
      <path d="M322.25 -456.4711 L317.25 -444.4711 L322.25 -447.4711 L327.25 -444.4711 Z" stroke="none" clip-path="url(#clipPath2)"/>
      <text x="208.4961" font-size="12px" y="-380.6038" clip-path="url(#clipPath2)" stroke="none" font-weight="normal" xml:space="preserve">endpoint:  http://localhost:8080/pbroker/rest/properties</text>
    </g>
    <g fill="rgb(210,210,210)" text-rendering="geometricPrecision" shape-rendering="geometricPrecision" transform="matrix(1,0,0,1,170,739) translate(4,4)" stroke="rgb(210,210,210)">
      <rect x="193.125" width="258.25" height="80.3765" y="-638.2588" clip-path="url(#clipPath3)" stroke="none"/>
    </g>
    <g fill="rgb(222,220,196)" text-rendering="geometricPrecision" shape-rendering="geometricPrecision" transform="matrix(1,0,0,1,170,739)" stroke="rgb(222,220,196)">
      <rect x="193.125" width="258.25" height="80.3765" y="-638.2588" clip-path="url(#clipPath2)" stroke="none"/>
      <rect x="193.125" y="-638.2588" clip-path="url(#clipPath2)" fill="rgb(183,182,158)" width="258.25" height="22.3765" stroke="none"/>
    </g>
    <g font-size="15px" stroke-linecap="butt" transform="matrix(1,0,0,1,170,739)" text-rendering="geometricPrecision" font-family="sans-serif" shape-rendering="geometricPrecision" stroke-miterlimit="1.45">
      <text x="376.8506" xml:space="preserve" y="-621.1782" clip-path="url(#clipPath2)" stroke="none">Controllers</text>
      <rect fill="none" x="193.125" width="258.25" height="80.3765" y="-638.2588" clip-path="url(#clipPath2)"/>
    </g>
    <g fill="rgb(255,204,0)" text-rendering="geometricPrecision" shape-rendering="geometricPrecision" transform="matrix(1,0,0,1,170,739)" stroke="rgb(255,204,0)">
      <rect x="210" width="224" height="26" y="-599" clip-path="url(#clipPath2)" stroke="none"/>
      <rect x="209" y="-600" clip-path="url(#clipPath2)" fill="yellow" width="1" height="28" stroke="none"/>
      <rect x="210" y="-600" clip-path="url(#clipPath2)" fill="yellow" width="224" height="1" stroke="none"/>
      <rect x="210" y="-573" clip-path="url(#clipPath2)" fill="rgb(178,142,0)" width="225" height="1" stroke="none"/>
      <rect x="434" y="-600" clip-path="url(#clipPath2)" fill="rgb(178,142,0)" width="1" height="27" stroke="none"/>
    </g>
    <g font-size="13px" stroke-linecap="butt" transform="matrix(1,0,0,1,170,739)" text-rendering="geometricPrecision" font-family="sans-serif" shape-rendering="geometricPrecision" font-weight="bold" stroke-miterlimit="1.45">
      <text x="296.25" xml:space="preserve" y="-582.8125" clip-path="url(#clipPath16)" stroke="none">MainCtrl</text>
      <path fill="none" d="M322.25 -484.549 L322.25 -564.8392" clip-path="url(#clipPath2)"/>
      <path d="M322.25 -572.8392 L317.25 -560.8392 L322.25 -563.8392 L327.25 -560.8392 Z" stroke="none" clip-path="url(#clipPath2)"/>
      <text x="279.5762" font-size="12px" y="-537.3859" clip-path="url(#clipPath2)" stroke="none" font-weight="normal" xml:space="preserve">uses</text>
    </g>
  </g>
</svg>
